<svg width="31" height="31" viewBox="0 0 31 31" fill="none" xmlns="http://www.w3.org/2000/svg">
<path fill-rule="evenodd" clip-rule="evenodd" d="M20.3116 28.4167V18.4127H23.67L24.1724 14.5145H20.3103V12.0254C20.3103 10.8965 20.6242 10.1267 22.244 10.1267H24.308V6.63916C23.3085 6.53177 22.3037 6.48002 21.2985 6.48417C18.3225 6.48417 16.2855 8.30154 16.2855 11.6379V14.5145H12.9168V18.4127H16.2842V28.4167H4.0095C3.22158 28.4167 2.5835 27.7786 2.5835 26.9907V4.00933C2.5835 3.22142 3.22158 2.58333 4.0095 2.58333H26.9908C27.7787 2.58333 28.4168 3.22142 28.4168 4.00933V26.9907C28.4168 27.7786 27.7787 28.4167 26.9908 28.4167H20.3116Z" fill="#121212"/>
</svg>
