<?xml version="1.0" standalone="no"?>
<!DOCTYPE svg PUBLIC "-//W3C//DTD SVG 20010904//EN" "http://www.w3.org/TR/2001/REC-SVG-20010904/DTD/svg10.dtd">
<svg version="1.0" xmlns="http://www.w3.org/2000/svg" width="5000.000000pt" height="5000.000000pt"
    viewBox="0 0 5000.000000 5000.000000" preserveAspectRatio="xMidYMid meet">
    <metadata>
        Created by potrace 1.10, written by Peter Selinger 2001-2011
    </metadata>
    <g transform="translate(0.000000,5000.000000) scale(0.100000,-0.100000)" fill="#000000" stroke="none">
        <path d="M10715 49944 c-27 -2 -162 -11 -300 -19 -756 -47 -2165 -185 -2820
-275 -1287 -178 -1844 -398 -2480 -977 -135 -123 -349 -352 -540 -578 -124
-146 -184 -221 -587 -725 -335 -420 -617 -739 -869 -985 -130 -126 -168 -156
-379 -297 -596 -397 -991 -709 -1350 -1068 -616 -615 -964 -1219 -1164 -2020
-91 -361 -120 -616 -113 -975 9 -427 70 -720 237 -1141 107 -268 175 -364 280
-397 38 -12 93 -18 180 -19 137 -1 197 10 247 48 56 42 71 77 129 289 60 223
183 492 309 680 238 353 429 470 867 531 176 25 604 25 783 0 388 -54 561
-142 804 -409 533 -587 1016 -1698 1130 -2597 54 -427 80 -921 131 -2515 79
-2461 130 -3067 321 -3780 354 -1323 927 -2389 2367 -4405 413 -577 828 -1138
1614 -2182 1095 -1452 1838 -2500 2203 -3109 394 -657 1021 -2221 1566 -3902
699 -2160 1443 -4941 1809 -6767 466 -2323 510 -3950 156 -5777 -168 -863
-511 -2105 -843 -3052 -81 -233 -84 -238 -131 -250 -190 -51 -1499 -245 -2937
-436 -2267 -301 -3184 -467 -4035 -730 -434 -135 -1023 -324 -1030 -332 -14
-14 -330 -782 -395 -958 -92 -247 -119 -351 -119 -462 -1 -77 2 -96 20 -119
83 -112 226 -105 779 40 230 60 353 79 474 74 92 -3 103 -6 193 -50 174 -84
239 -84 486 -2 228 75 286 70 367 -32 63 -80 79 -88 167 -93 99 -4 180 13 623
134 446 121 533 140 663 140 l103 0 32 -36 c18 -20 40 -49 51 -64 32 -47 97
-68 222 -73 139 -6 311 7 839 64 706 75 897 79 1004 24 24 -12 67 -52 106 -99
67 -81 114 -111 173 -111 48 0 220 47 476 129 328 106 439 134 547 135 74 1
90 -2 109 -19 31 -28 50 -76 50 -129 0 -58 29 -94 88 -107 57 -12 117 -5 662
86 1121 186 1502 231 1737 206 154 -16 234 -41 426 -132 285 -136 333 -149
568 -156 201 -6 311 1 934 62 1657 163 3378 294 4855 371 432 22 1116 29 1460
15 745 -31 1676 -94 2445 -166 607 -57 830 -75 1035 -81 305 -10 395 11 525
124 179 155 256 200 376 222 105 19 244 -2 404 -62 44 -17 195 -85 335 -153
372 -178 444 -205 563 -205 86 0 169 31 283 106 111 73 144 112 144 169 0 155
-345 935 -584 1318 -258 414 -593 653 -1138 811 -521 151 -1154 244 -2718 401
-1092 110 -1747 196 -1797 237 -23 18 -14 244 33 908 98 1392 264 3014 313
3063 29 29 796 -132 1086 -228 419 -140 673 -316 2005 -1393 300 -242 546
-440 547 -439 1 1 6 1174 12 2607 14 3203 40 7402 45 7408 5 5 832 -314 1066
-411 913 -377 1756 -863 2415 -1391 453 -363 881 -814 1086 -1143 350 -561
1514 -2658 2739 -4933 293 -545 696 -1298 797 -1490 336 -637 1809 -3394 2483
-4645 593 -1100 616 -1141 637 -1137 190 35 7100 4342 7981 4974 61 44 82 65
82 82 0 31 -82 196 -167 336 -306 504 -1004 1526 -2791 4085 -568 813 -1606
2304 -1789 2570 -134 195 -337 514 -331 520 5 5 836 -422 1008 -517 211 -118
383 -221 660 -397 294 -186 1313 -866 1965 -1310 1612 -1100 2586 -1725 3000
-1926 279 -136 378 -143 744 -54 329 80 365 116 419 414 33 180 37 439 10 552
-67 272 -312 733 -566 1063 -187 242 -391 469 -742 823 -654 663 -1554 1483
-3300 3012 -2464 2156 -4457 4047 -5571 5285 -546 607 -1111 1296 -2030 2475
-569 730 -1045 1349 -2774 3610 -4689 6130 -6092 7958 -7174 9350 -1420 1827
-2018 2560 -2645 3245 -2228 2430 -3529 3476 -5341 4295 -441 199 -542 255
-663 369 -123 116 -225 283 -465 761 -808 1607 -2341 3900 -3187 4769 -624
641 -1764 1159 -2985 1356 -463 75 -671 91 -1225 95 -256 1 -487 1 -515 -1z
m60 -738 c987 -43 1636 -93 2000 -156 222 -39 683 -176 964 -287 1230 -486
2027 -1356 3318 -3623 246 -431 387 -688 1008 -1840 295 -547 537 -996 538
-997 1 -1 148 -41 327 -88 476 -127 601 -171 895 -315 325 -159 705 -393 965
-593 605 -468 1611 -1407 2950 -2753 1128 -1135 1944 -2011 2537 -2724 401
-483 2303 -2935 4413 -5690 200 -261 466 -608 590 -770 124 -162 408 -533 630
-825 2558 -3354 5811 -7583 6464 -8400 710 -890 1892 -2149 3246 -3459 1002
-970 1432 -1361 2710 -2466 2750 -2379 4131 -3641 4535 -4145 112 -140 273
-436 331 -610 16 -48 28 -112 31 -160 5 -71 3 -83 -17 -107 -24 -32 -53 -35
-105 -14 -75 32 -1151 694 -2970 1828 -984 613 -1206 751 -1580 976 -1882
1134 -4481 2535 -14550 7847 -2611 1377 -2917 1539 -3560 1877 -308 163 -1102
581 -1765 930 -4111 2167 -6267 3302 -6630 3493 -2869 1504 -6162 3285 -6772
3662 -179 110 -498 362 -791 625 -1018 910 -2087 2170 -2625 3096 -249 426
-404 789 -452 1052 -58 322 -47 891 25 1355 212 1345 1036 2263 2660 2963
1205 519 2970 984 5288 1394 370 65 527 96 527 105 0 31 -83 309 -105 352 -30
59 -73 101 -122 119 -54 20 -270 27 -394 12 -489 -56 -1771 -328 -2741 -581
-2465 -642 -4083 -1389 -4945 -2282 -216 -224 -373 -444 -503 -706 -528 -1061
-615 -2392 -220 -3381 84 -211 228 -467 457 -814 840 -1274 2307 -2948 3198
-3649 157 -124 381 -255 1184 -691 2042 -1111 7634 -4074 19516 -10341 883
-466 1205 -636 4370 -2312 1111 -588 2724 -1442 3585 -1896 l1565 -827 1260
-1792 c1984 -2821 2644 -3766 3377 -4828 455 -660 831 -1218 893 -1323 26 -46
27 -49 9 -61 -171 -126 -3404 -2167 -5269 -3328 -1187 -739 -1633 -1010 -1649
-1005 -19 6 -252 441 -1971 3687 -1168 2206 -1533 2890 -2018 3785 -1676 3093
-2406 4218 -3268 5036 -306 291 -557 499 -843 699 -1112 775 -3166 1756 -3693
1764 -119 1 -129 -7 -143 -119 -31 -258 -65 -1062 -95 -2215 -28 -1104 -37
-1636 -65 -3705 -20 -1491 -51 -2993 -66 -3242 -6 -93 -8 -102 -24 -93 -54 29
-354 255 -730 550 -477 374 -662 448 -1590 640 -190 39 -556 116 -813 171
-258 54 -476 99 -485 99 -44 0 -114 -573 -237 -1925 -127 -1413 -235 -2758
-261 -3261 -6 -123 -5 -132 12 -138 89 -26 913 -144 1734 -246 1233 -154 2401
-329 2534 -380 48 -18 121 -165 245 -491 85 -225 101 -286 101 -380 0 -85 -25
-150 -81 -214 -45 -51 -101 -74 -196 -81 -128 -10 -282 5 -1048 105 -691 90
-1313 123 -2270 123 -870 0 -1611 -25 -2920 -97 -928 -52 -2795 -177 -3860
-260 -104 -8 -269 -15 -365 -15 -280 0 -355 25 -496 165 -170 169 -198 326
-94 541 47 98 195 297 282 380 192 184 475 252 2328 559 1247 206 2135 380
2190 430 118 107 341 1943 435 3580 41 721 46 1783 11 2260 -94 1278 -355
2214 -1016 3650 -747 1622 -1202 2348 -2579 4120 -609 783 -1621 2034 -3601
4455 -1623 1984 -2757 3384 -3166 3910 -2062 2651 -3624 4921 -4436 6445 -430
806 -636 1346 -747 1955 -155 843 -240 1974 -256 3365 -9 888 -53 1518 -155
2235 -149 1047 -392 1871 -692 2346 -348 548 -967 1208 -1278 1360 -114 56
-324 111 -510 133 -47 6 -164 13 -260 17 -284 11 -311 22 -188 78 118 55 213
70 408 63 323 -10 681 -97 1006 -244 120 -54 279 -150 398 -241 83 -63 280
-255 386 -377 479 -550 913 -1387 1151 -2220 59 -207 98 -323 131 -389 37 -74
112 -154 177 -189 167 -91 508 -166 579 -128 12 6 29 25 37 41 20 39 49 53 93
45 32 -5 41 -2 64 22 66 71 120 176 224 437 123 308 142 316 272 132 98 -139
212 -236 279 -238 43 -1 190 65 563 253 381 191 679 351 1090 582 962 541
1091 649 1487 1242 288 431 372 596 421 825 24 113 48 302 62 495 16 219 80
1285 80 1330 0 36 -26 78 -241 395 -353 519 -461 659 -704 909 -445 458 -914
762 -1343 870 -258 65 -1152 173 -1956 236 -278 22 -749 30 -941 16 -533 -39
-856 -151 -1139 -396 -181 -156 -407 -504 -466 -715 -25 -91 -28 -229 -6 -315
29 -110 119 -272 243 -436 200 -264 361 -522 534 -854 186 -359 293 -644 260
-694 -15 -22 -134 7 -426 103 -338 112 -587 207 -1192 454 l-513 209 -287 -89
c-159 -49 -331 -106 -383 -125 -587 -219 -1395 -827 -1840 -1383 -29 -36 -138
-193 -244 -350 l-191 -285 -3 215 c-4 278 12 602 38 759 47 283 138 567 261
813 291 581 734 1070 1384 1529 326 230 400 284 530 384 298 229 565 466 836
741 262 267 430 459 719 819 505 630 820 966 1166 1243 536 429 1130 660 2109
821 266 44 407 57 795 75 213 10 1805 -4 2135 -18z m-2712 -3197 c446 -24 766
-102 1175 -285 379 -169 688 -383 1010 -698 344 -336 580 -686 648 -960 22
-87 30 -439 15 -651 -35 -497 -138 -1026 -252 -1301 -51 -123 -210 -354 -377
-546 -218 -253 -575 -526 -675 -516 -29 3 -32 6 -35 41 -2 28 9 64 46 145 80
172 154 428 228 792 65 315 57 434 -38 622 -150 293 -451 644 -740 861 -452
340 -825 425 -1155 265 -87 -43 -209 -143 -293 -240 -224 -260 -606 -946 -723
-1298 -50 -151 -62 -232 -61 -420 0 -204 16 -306 94 -616 63 -252 74 -327 67
-478 -7 -155 -51 -314 -213 -765 -2 -8 -196 329 -430 750 -490 879 -752 1342
-975 1724 -87 148 -157 271 -155 273 2 2 129 -29 282 -67 334 -84 393 -94 464
-81 99 19 142 52 398 305 l242 240 -90 340 c-117 443 -142 553 -142 646 -1 96
20 139 104 212 35 30 100 87 146 127 146 126 242 251 331 428 104 208 147 386
161 672 14 282 54 435 124 472 47 26 425 29 819 7z m-1788 -60 c97 -26 174
-104 190 -191 28 -154 -128 -821 -208 -887 -38 -31 -171 29 -357 162 -131 93
-319 270 -357 334 -88 151 98 425 365 537 124 52 273 70 367 45z m2270 -2916
c213 -123 286 -176 390 -280 181 -180 240 -298 252 -499 18 -315 -155 -744
-454 -1123 -151 -190 -417 -435 -608 -557 -102 -64 -377 -225 -381 -222 -4 5
-145 814 -176 1013 -17 108 -22 185 -23 335 l0 195 33 95 c38 110 80 189 164
315 75 110 608 835 614 835 3 0 88 -48 189 -107z m4524 -21461 c166 -201 2935
-3668 3372 -4222 1397 -1770 2204 -2896 2781 -3880 349 -595 726 -1340 951
-1880 308 -741 558 -1558 712 -2325 115 -574 152 -908 170 -1544 l6 -203 -34
28 c-19 16 -108 96 -198 178 -202 183 -308 260 -464 336 -212 104 -575 219
-1050 335 -410 100 -932 205 -1020 205 -34 0 -35 -1 -55 -69 -81 -272 -429
-1702 -1005 -4126 -196 -825 -357 -1500 -358 -1502 -1 -1 -268 -47 -592 -103
-1001 -171 -1669 -313 -2700 -574 -609 -155 -1016 -271 -1213 -348 -114 -44
-126 -56 -185 -173 -40 -81 -66 -161 -97 -295 -25 -107 -55 -172 -97 -212 -56
-53 -87 -59 -388 -74 -325 -15 -348 -17 -680 -51 -285 -29 -558 -36 -617 -15
-89 32 -148 153 -148 307 0 241 151 425 450 548 311 128 906 267 1635 381 380
60 699 100 1380 171 868 91 1021 129 1173 289 88 93 125 179 266 622 221 695
313 1001 435 1434 532 1898 695 3283 605 5140 -151 3154 -919 6110 -2828
10898 -241 603 -310 803 -278 802 4 -1 36 -36 71 -78z m5943 -13766 c147 -28
387 -116 739 -271 567 -249 1028 -587 1163 -852 64 -128 79 -290 66 -733 -18
-627 -78 -1088 -255 -1979 -63 -315 -116 -575 -117 -576 -6 -5 -1658 -236
-1898 -265 -554 -68 -1039 -106 -1054 -82 -4 6 16 118 44 249 201 934 937
4128 1006 4366 41 137 127 177 306 143z m9323 -5716 c137 -67 248 -151 396
-299 110 -111 163 -172 217 -255 88 -133 94 -169 34 -187 -26 -7 -107 -10
-243 -7 -181 3 -209 6 -249 25 -92 43 -107 68 -188 339 -34 110 -71 223 -82
250 -12 27 -24 70 -27 96 -10 87 24 96 142 38z m-13828 -296 c25 -25 26 -27
20 -137 -9 -189 -60 -325 -162 -436 -96 -103 -191 -154 -425 -229 -266 -85
-300 -67 -300 155 1 166 35 247 154 361 161 155 475 311 624 312 55 0 66 -3
89 -26z m-6173 -160 c65 -25 -70 -252 -252 -425 -129 -123 -243 -177 -312
-149 -51 21 -36 68 56 180 128 157 359 352 459 388 17 6 31 11 32 11 1 1 8 -2
17 -5z m7381 -19 c19 -18 25 -35 25 -67 0 -72 -41 -143 -138 -238 -127 -125
-266 -201 -398 -216 -67 -8 -100 0 -107 28 -8 29 27 131 66 193 137 217 460
393 552 300z m-6243 -72 c29 -33 53 -204 43 -300 -8 -80 -12 -82 -215 -153
-137 -49 -499 -154 -505 -148 -6 6 542 557 584 587 50 35 71 38 93 14z m3412
-160 c25 -77 39 -181 33 -241 -9 -85 -72 -141 -122 -108 -45 29 -54 123 -23
226 19 65 71 170 84 170 7 0 19 -21 28 -47z m-5787 -109 c8 -22 -14 -119 -42
-180 -25 -57 -63 -90 -150 -131 -51 -24 -73 -28 -148 -28 -85 0 -90 1 -113 28
-13 15 -24 38 -24 49 0 31 82 106 184 168 160 96 277 134 293 94z" />
    </g>
</svg>