<svg width="31" height="31" viewBox="0 0 31 31" fill="none" xmlns="http://www.w3.org/2000/svg">
<path fill-rule="evenodd" clip-rule="evenodd" d="M7.50623 1.74265C5.97738 1.74265 4.51111 2.34983 3.42984 3.43068C2.34857 4.51154 1.74082 5.97758 1.74023 7.50643V22.8824C1.74023 24.4117 2.34772 25.8783 3.42906 26.9596C4.51039 28.0409 5.977 28.6484 7.50623 28.6484H22.8822C24.4111 28.6478 25.8771 28.0401 26.958 26.9588C28.0388 25.8776 28.646 24.4113 28.646 22.8824V7.50643C28.6454 5.97796 28.038 4.51226 26.9572 3.43147C25.8764 2.35067 24.4107 1.74323 22.8822 1.74265H7.50623ZM24.5407 7.51529C24.5407 7.95574 24.3658 8.37815 24.0543 8.68959C23.7429 9.00103 23.3205 9.176 22.88 9.176C22.4396 9.176 22.0172 9.00103 21.7057 8.68959C21.3943 8.37815 21.2193 7.95574 21.2193 7.51529C21.2193 7.07484 21.3943 6.65243 21.7057 6.34099C22.0172 6.02954 22.4396 5.85457 22.88 5.85457C23.3205 5.85457 23.7429 6.02954 24.0543 6.34099C24.3658 6.65243 24.5407 7.07484 24.5407 7.51529ZM15.1964 10.5887C13.9749 10.5887 12.8035 11.074 11.9397 11.9377C11.076 12.8014 10.5907 13.9729 10.5907 15.1944C10.5907 16.4159 11.076 17.5874 11.9397 18.4512C12.8035 19.3149 13.9749 19.8001 15.1964 19.8001C16.418 19.8001 17.5894 19.3149 18.4532 18.4512C19.3169 17.5874 19.8022 16.4159 19.8022 15.1944C19.8022 13.9729 19.3169 12.8014 18.4532 11.9377C17.5894 11.074 16.418 10.5887 15.1964 10.5887ZM8.37423 15.1944C8.37423 13.3857 9.09277 11.651 10.3718 10.372C11.6508 9.09296 13.3855 8.37443 15.1942 8.37443C17.003 8.37443 18.7377 9.09296 20.0167 10.372C21.2957 11.651 22.0142 13.3857 22.0142 15.1944C22.0142 17.0032 21.2957 18.7379 20.0167 20.0169C18.7377 21.2959 17.003 22.0144 15.1942 22.0144C13.3855 22.0144 11.6508 21.2959 10.3718 20.0169C9.09277 18.7379 8.37423 17.0032 8.37423 15.1944Z" fill="#121212"/>
</svg>
