<svg width="33" height="33" viewBox="0 0 33 33" fill="none" xmlns="http://www.w3.org/2000/svg">
<path fill-rule="evenodd" clip-rule="evenodd" d="M22 29.9062C24.0969 29.9062 26.1079 29.0733 27.5906 27.5906C29.0733 26.1079 29.9062 24.0969 29.9062 22V11C29.9062 8.90313 29.0733 6.89215 27.5906 5.40944C26.1079 3.92673 24.0969 3.09375 22 3.09375H11C8.90313 3.09375 6.89215 3.92673 5.40944 5.40944C3.92673 6.89215 3.09375 8.90313 3.09375 11V22C3.09375 24.0969 3.92673 26.1079 5.40944 27.5906C6.89215 29.0733 8.90313 29.9062 11 29.9062H22ZM18.8526 7.92413C18.7748 7.69236 18.6172 7.49577 18.4079 7.36944C18.1986 7.24311 17.9512 7.19524 17.7099 7.23439C17.4685 7.27354 17.249 7.39715 17.0903 7.58317C16.9317 7.76919 16.8443 8.00552 16.8438 8.25V20.625C16.8438 21.2369 16.6623 21.835 16.3224 22.3438C15.9824 22.8526 15.4992 23.2491 14.9339 23.4833C14.3686 23.7174 13.7466 23.7787 13.1464 23.6593C12.5463 23.5399 11.9951 23.2453 11.5624 22.8126C11.1297 22.3799 10.8351 21.8287 10.7157 21.2286C10.5963 20.6284 10.6576 20.0064 10.8917 19.4411C11.1259 18.8758 11.5224 18.3926 12.0312 18.0526C12.54 17.7127 13.1381 17.5312 13.75 17.5312C14.0235 17.5312 14.2858 17.4226 14.4792 17.2292C14.6726 17.0358 14.7812 16.7735 14.7812 16.5C14.7812 16.2265 14.6726 15.9642 14.4792 15.7708C14.2858 15.5774 14.0235 15.4688 13.75 15.4688C12.7302 15.4688 11.7333 15.7712 10.8853 16.3377C10.0374 16.9043 9.37651 17.7096 8.98625 18.6518C8.59598 19.594 8.49387 20.6307 8.69283 21.6309C8.89178 22.6311 9.38287 23.5499 10.104 24.271C10.8251 24.9921 11.7439 25.4832 12.7441 25.6822C13.7443 25.8811 14.781 25.779 15.7232 25.3888C16.6654 24.9985 17.4707 24.3376 18.0373 23.4897C18.6038 22.6417 18.9062 21.6448 18.9062 20.625V11.6298C19.9609 12.6088 21.4459 13.4062 23.375 13.4062C23.6485 13.4062 23.9108 13.2976 24.1042 13.1042C24.2976 12.9108 24.4062 12.6485 24.4062 12.375C24.4062 12.1015 24.2976 11.8392 24.1042 11.6458C23.9108 11.4524 23.6485 11.3438 23.375 11.3438C22.0385 11.3438 21.0224 10.7937 20.2689 10.0801C19.4989 9.34862 19.0341 8.46725 18.8526 7.92413Z" fill="#121212"/>
</svg>
